<svg width="121" height="25" viewBox="0 0 121 25" fill="none" xmlns="http://www.w3.org/2000/svg">
<path d="M119.5 24.7486C120.052 24.7486 120.5 24.3009 120.5 23.7486V14.7486C120.5 14.1964 120.052 13.7486 119.5 13.7486C118.948 13.7486 118.5 14.1964 118.5 14.7486V22.7486H110.5C109.948 22.7486 109.5 23.1964 109.5 23.7486C109.5 24.3009 109.948 24.7486 110.5 24.7486H119.5ZM1.60942 24.5415C12.6689 16.0405 31.8352 5.82728 53.3122 2.85169C74.7496 -0.118404 98.4566 4.1195 118.793 24.4558L120.207 23.0415C99.3434 2.17779 74.967 -2.16763 53.0378 0.870611C31.1482 3.90336 11.6644 14.2901 0.390575 22.9558L1.60942 24.5415Z" fill="#E44646"/>
</svg>
