<svg width="148" height="153" viewBox="0 0 148 153" fill="none" xmlns="http://www.w3.org/2000/svg">
<path d="M1.42663 143.101C0.957149 143.392 0.812355 144.008 1.10323 144.477L5.84325 152.128C6.13412 152.597 6.75051 152.742 7.21998 152.451C7.68947 152.161 7.83427 151.544 7.5434 151.075L3.33003 144.274L10.1306 140.061C10.6001 139.77 10.7449 139.153 10.454 138.684C10.1631 138.215 9.54675 138.07 9.07726 138.361L1.42663 143.101ZM144.083 0.933304C147.317 31.0399 144.047 74.1988 123.885 105.976C113.819 121.84 99.5512 134.86 79.7652 142.038C59.9699 149.219 34.5646 150.584 2.18198 142.977L1.72462 144.924C34.3813 152.595 60.1976 151.264 80.4472 143.918C100.706 136.568 115.306 123.23 125.573 107.048C146.076 74.734 149.33 31.0528 146.072 0.719727L144.083 0.933304Z" fill="#E44646"/>
</svg>
